<?xml version="1.0" encoding="UTF-8"?><svg id="Layer_2" xmlns="http://www.w3.org/2000/svg" viewBox="0 0 192.92 179.56"><defs><style>.cls-1{fill:#3c3c3d;}.cls-2{fill:#4c4c4c;}.cls-3{fill:#171719;}.cls-4{fill:#1d1d1e;}.cls-5{opacity:.4;}.cls-6{fill:#2c2b2d;}</style></defs><g id="Layer_2-2"><path class="cls-4" d="m63.1,169.85l27.97-10.06s31.87-5.29,42.9-7.13,43.77-8.31,49.95-14.78,14.46-30.71,4.07-41.85-13.24-24.99-25.02-28.19c-11.78-3.2-27.59-2.83-32.37-4.3s-36.95-37.72-39.85-39.86-27.65,146.18-27.65,146.18Z"/><path class="cls-3" d="m170.92,82.06c-13.16,11.97-39.68,15.71-64.93,15.18-7.13-.14-14.16-.63-20.76-1.36-3.17-.36-6.23-.77-9.16-1.23-17.89-2.79-30.73-7.36-30.24-11.45,1.03-8.7,3.08-23.62,7.72-36.16,1.28-3.46,2.76-6.75,4.48-9.67,2.01-3.44,4.15-7.12,6.26-10.77,3.88-6.69,7.72-13.29,10.72-18.12,1.8-2.89,3.3-5.15,4.33-6.41,1.29-1.58,4.95-2.33,9.41-1.99,8.29.63,19.31,5.03,22.84,14.83,3.22,8.95,23.59,31.01,39.57,47.41.01.01.03.03.04.03,1.28,1.32,2.55,2.62,3.76,3.85h.01c3.45,3.5,6.57,6.63,9.12,9.16,4.18,4.14,6.83,6.7,6.83,6.7Z"/><path class="cls-6" d="m190.53,99.68h0c-3.2,11.01-12.07,31.99-15.66,35.75-4.63,4.85-50.36,10.68-60.79,11.24-4.35.24-10.44,5.34-16.07,11.22-.29.3-.58.6-.87.89-11.32,11.4-26.3,18.43-42.35,19.62-.12,0-.25.02-.37.03-10.08.74-20.54,1.29-27.25,1.09h-.04c-2.84-.09-5.01-.32-6.17-.73-7.92-2.79-18.32-22.84-20.69-29.43-.19-.52-.27-1.1-.27-1.74v-.02c0-1.99.81-4.48,2.01-7.09,3.66-7.97,5.8-16.61,6.2-25.37.03-.62.14-1.21.39-1.72,1.8-3.84,1.88-.68,5.57-5.19,3.69-4.52,15.58-9.86,15.51-13.02-.08-3.16-.6-25.29-.41-30.68.12-3.41,7.08-12.68,14.11-20.81,4.08-4.71,8.18-9.02,11.01-11.6,1.95-1.79,5.54-3.68,9.9-5.52,2.62-1.11,5.52-2.2,8.52-3.24,2.25-.79,4.55-1.54,6.82-2.26,6.82-2.14,13.4-3.89,17.6-4.89,1.59-.39,2.84-.66,3.63-.81,5.98-1.09,15.58,16.71,18.21,21.08.89,1.46,5.23,5.18,10.61,9.48,0,0,0,0,.02,0,6.95,5.54,15.61,12.02,20.75,15.83.24.18.48.35.71.52.01.01.03.03.04.03.28.21.55.41.8.59.12.09.25.19.37.27.36.27.68.51.97.73.1.07.19.14.28.2.27.2.49.36.67.5.07.04.12.08.17.12.06.04.11.08.15.1.06.05.12.09.16.12.06.05.09.07.09.07,0,0,.78.54,2.12,1.48h.01c.3.22.63.44.98.69,1.57,1.1,3.66,2.57,6.02,4.25.26.19.53.38.8.57,1.08.77,2.2,1.57,3.35,2.4,3.04,2.19,6.28,4.56,9.36,6.86,7.23,5.39,13.53,10.44,14.08,11.98.31.85-.14,3.2-1.05,6.4Z"/><path class="cls-2" d="m97.08,121.59c-.43.16-.89.27-1.38.33-1.38.17-2.65.78-3.62,1.77l-14.62,14.75c-.17.17-.34.32-.53.48-2.37,1.88-19.11,15.01-24.88,14.14-3.97-.6-10.2-3.43-15.07-7.83h-.01c-2.76-2.5-5.08-5.51-6.31-8.92-2.21-6.14.35-11.14,2.39-13.87.71-.94,1.22-2.04,1.26-3.22.11-3.13,8.28-12.71,9.87-13.29,1.88-.68,12.19,7.3,15.19,8.26,2.99.95,24.47-16.16,26.36-16.84,1.11-.4,8.27,7.78,13.95,14.53,2.81,3.36,1.26,8.31-2.59,9.69Z"/><path class="cls-2" d="m168.14,74.44c-8.39,2.32-25.63,3.56-33.18,2.11-7.55-1.44-5.29-30.59-5.29-30.59,0,0,.01,0,.03.01,10.58,8.45,25.15,19.08,25.15,19.08,0,0,6.07,4.2,13.28,9.39Z"/><path class="cls-1" d="m59.36,114.2c-21.48,9.76-22.39,31.02-22.39,31.02h-.01c-2.76-2.5-5.08-5.51-6.31-8.92-2.21-6.14.35-11.14,2.39-13.87.71-.94,1.22-2.04,1.26-3.22.11-3.13,8.28-12.71,9.87-13.29,1.88-.68,12.19,7.3,15.19,8.26Z"/><path class="cls-1" d="m82.18,55.06l-4.14,12.12-15.83-1.16s-6.52-7.8-6.86-8.74c-.24-.67,1.62-5.81,2.74-8.76.47-1.23.8-2.08.8-2.08,0,0-2.51.38-5.34.6-2.85.22-6.03.3-7.31-.3-.85-.41-1.86-1.58-2.86-3.02,4.08-4.71,8.18-9.02,11.01-11.6,1.95-1.79,5.54-3.68,9.9-5.52,2.62-1.11,5.52-2.2,8.52-3.24l5,2.65,4.34,12.06.03,16.99Z"/><path class="cls-5" d="m87.15,70.51c0,8.67-.66,17.15-1.92,25.37-.07.46-.14.91-.21,1.36-.03.19-.06.37-.1.56-.97,5.94-2.27,11.73-3.86,17.34-.49,1.76-1.02,3.5-1.57,5.22-2.74,8.56-6.16,16.68-10.2,24.26-.88,1.7-1.82,3.37-2.78,5.01-4.05,6.94-8.62,13.37-13.64,19.21-2.93,3.4-6,6.61-9.22,9.59-5.73.52-11.63.95-16.48,1.09h-.04c-4.9.13-8.75-.04-10.32-.73-6.35-2.79-14.69-22.84-16.59-29.43-.15-.51-.22-1.1-.22-1.74v-.02c0-1.99.81-4.48,2.01-7.09,3.66-7.97,5.8-16.61,6.2-25.37.03-.62.14-1.21.39-1.72,1.8-3.84,1.88-.68,5.57-5.19,3.69-4.52,15.58-9.86,15.51-13.02-.08-3.16-.6-25.29-.41-30.68.12-3.41,7.08-12.68,14.11-20.81,4.08-4.71,8.18-9.02,11.01-11.6,1.95-1.79,5.54-3.68,9.9-5.52,3.88-6.69,7.72-13.29,10.72-18.12,1.06,2.53,2.05,5.11,2.98,7.73.57,1.61,1.12,3.24,1.64,4.89,1.77,5.58,3.25,11.34,4.42,17.26.45,2.3.86,4.62,1.21,6.96,1.24,8.16,1.89,16.58,1.89,25.19Z"/></g></svg>