<?xml version="1.0" encoding="UTF-8"?><svg id="Layer_2" xmlns="http://www.w3.org/2000/svg" viewBox="0 0 53.54 59.82"><defs><style>.cls-1{fill:#3c3c3d;}.cls-2{fill:#4c4c4c;}.cls-3{fill:#171719;}.cls-4{opacity:.4;}.cls-5{fill:#2c2b2d;}</style></defs><g id="Layer_2-2"><path class="cls-3" d="m36.3,14.55c-.18.61-.46,1.21-.83,1.77-1.87,2.81-3.84,12.89-5.19,21.11-1.04,6.3-1.72,11.5-1.72,11.5-3.09-.61-6.3-2.54-9.4-5.23l-.21-.18c-2.92-2.56-5.74-5.78-8.27-9.18C3.32,24.45-1.61,13.03.49,11.83c3.47-1.99,10.08-5.6,15.7-6.43.23-.04.46-.07.69-.09,4.31-.47,9.47-1.11,12.72-1.37,1.11-.08,2-.13,2.55-.1.62.03,1.42.65,2.17,1.64,1.6,2.09,2.99,5.83,1.98,9.07Z"/><path class="cls-5" d="m50.34,26.48c-.17,5.03-.12,11.74-.12,11.74,0,0,.09,2.74.14,6.05.07,4.67.05,10.45-.43,11.18-.82,1.24-13.82,4.66-16.3,4.35-.91-.12-3.09-1.86-5.62-4.17l-.14-.13c-2.79-2.58-5.98-5.81-8.28-8.28l-.24-.25c-.6-.64-1.13-1.22-1.56-1.71-.41-.45-.74-.83-.98-1.12-1.04-1.25-7.45-3.75-6.65-6.66.33-1.19.49-2.22.52-3.14.17-4.12-2.16-5.87-2.81-10-.11-.73-.38-1.43-.74-2.12-1.21-2.36-3.38-4.48-3.26-6.45l5.71-2.29.31-1.21.27-1.07,3.3-3.68c.34-.26,1.41-1.1,2.73-2.12,2.29-1.77,5.29-4.08,6.34-4.8C23.25.1,25.57-.04,28.25,0c1.17.03,2.41.1,3.62.19,2.31.17,4.51.44,5.91.71,1.55.3,4.1,1.79,6.7,3.56,3.76,2.56,7.62,5.7,8.59,6.61,1.66,1.55-1.53,8.36-2.25,10.11-.24.6-.39,2.72-.48,5.28h0Z"/><path class="cls-2" d="m50.36,44.27c-2.55-1.99-6.74-6.87-7.98-9.44-1.25-2.57,7.96-8.36,7.96-8.36,0,0,0,0,0,.01-.18,5.03-.12,11.74-.12,11.74,0,0,.09,2.75.14,6.05Z"/><path class="cls-1" d="m44.79,6.55l-2.64,3.97-5.07,3.78-4.54,1.45-3.16-4.98s.88-3.68,1.09-3.99c.15-.22,2.09-.8,3.22-1.12.47-.13.8-.22.8-.22,0,0-2.69-2.68-2.89-3.71-.07-.35.06-.9.27-1.52,2.31.17,4.51.44,5.9.71,1.55.3,4.11,1.79,6.7,3.56l.32,2.08Z"/><path class="cls-2" d="m11.04,14.95c-.26.33-.89,5.39-.89,5.39l-3.02,1.89c-1.22-2.36-3.39-4.48-3.26-6.46l5.71-2.29.3-1.21c.67,1.25,1.27,2.53,1.16,2.68Z"/><path class="cls-2" d="m28.01,55.63l3.26-1.33,2.99-8.1s-4.73-11.11-6.43-13.16c-1.69-2.05-7-6.44-7-6.44l-2.35,12.88.87,7.49,8.66,8.66Z"/><path class="cls-4" d="m30.71,12.85h0c0,5.99-1.33,12.48-4.14,18.85-.06.15-.13.31-.2.46-1.96,4.35-4.43,8.24-7.21,11.54-.06.07-.11.14-.17.2-.39.47-.79.92-1.2,1.36-.41-.45-.74-.83-.98-1.12-1.04-1.25-7.45-3.75-6.65-6.66.33-1.19.49-2.22.52-3.14C3.32,24.45-1.61,13.03.49,11.83c3.47-1.99,10.08-5.6,15.7-6.43,2.29-1.77,5.29-4.08,6.34-4.8C23.25.1,25.57-.04,28.25,0c.54,1.24.99,2.56,1.35,3.93.29,1.07.52,2.18.7,3.32,0,0-.01,0,0,.01.27,1.79.41,3.66.41,5.58Z"/></g></svg>