<svg xmlns="http://www.w3.org/2000/svg" xmlns:xlink="http://www.w3.org/1999/xlink" data-name="Layer 1" width="842.72998" height="573" viewBox="0 0 842.72998 573"><path d="M213.7948,345.626a4.53477,4.53477,0,0,1-1.64453-.31055,4.47489,4.47489,0,0,1-2.87-4.19629v-47.0332a6.01164,6.01164,0,0,0-6.00464-6.00489h-9.63134A15.02614,15.02614,0,0,1,178.635,273.07178v-94.5625A15.02614,15.02614,0,0,1,193.64429,163.5H533.36963a15.02615,15.02615,0,0,1,15.00928,15.00928v94.5625a15.02615,15.02615,0,0,1-15.00928,15.00927H271.15a6.02074,6.02074,0,0,0-4.42651,1.94727l-49.62183,54.1333A4.47614,4.47614,0,0,1,213.7948,345.626ZM193.64429,165.5A13.024,13.024,0,0,0,180.635,178.50928v94.5625a13.024,13.024,0,0,0,13.00928,13.00927h9.63134a8.01371,8.01371,0,0,1,8.00464,8.00489v47.0332a2.50251,2.50251,0,0,0,4.34717,1.69092l49.62183-54.1333a8.02556,8.02556,0,0,1,5.90075-2.59571H533.36963a13.024,13.024,0,0,0,13.00928-13.00927v-94.5625A13.024,13.024,0,0,0,533.36963,165.5Z" transform="translate(-178.63501 -163.5)" fill="#ccc"/><circle cx="36.81607" cy="29.45637" r="13.13371" fill="#ccc"/><path d="M518.04693,265.62955H208.967a7.00465,7.00465,0,1,1,0-14.00929H518.04693a7.00465,7.00465,0,1,1,0,14.00929Z" transform="translate(-178.63501 -163.5)" fill="#ccc"/><path d="M417.35517,235.85981H208.967a7.00465,7.00465,0,1,1,0-14.00929H417.35517a7.00465,7.00465,0,1,1,0,14.00929Z" transform="translate(-178.63501 -163.5)" fill="#ccc"/><path d="M213.7948,679.22217a4.53456,4.53456,0,0,1-1.64453-.31055,4.47537,4.47537,0,0,1-2.87-4.19629v-47.0332a6.01163,6.01163,0,0,0-6.00464-6.00488h-9.63134A15.02614,15.02614,0,0,1,178.635,606.668v-94.5625a15.02614,15.02614,0,0,1,15.00928-15.00928H533.36963a15.02615,15.02615,0,0,1,15.00928,15.00928V606.668a15.02615,15.02615,0,0,1-15.00928,15.00928H271.15a6.02073,6.02073,0,0,0-4.42651,1.94726l-49.62183,54.1333A4.4761,4.4761,0,0,1,213.7948,679.22217Zm-20.15051-180.126A13.024,13.024,0,0,0,180.635,512.10547V606.668a13.024,13.024,0,0,0,13.00928,13.00928h9.63134a8.0137,8.0137,0,0,1,8.00464,8.00488v47.0332a2.50251,2.50251,0,0,0,4.34717,1.69092l49.62183-54.1333a8.02559,8.02559,0,0,1,5.90075-2.5957H533.36963A13.024,13.024,0,0,0,546.37891,606.668v-94.5625a13.024,13.024,0,0,0-13.00928-13.00928Z" transform="translate(-178.63501 -163.5)" fill="#ccc"/><path d="M715.478,505.85742a4.47521,4.47521,0,0,1-3.30664-1.46435l-49.62207-54.1333a6.02039,6.02039,0,0,0-4.42627-1.94727H395.90344a15.02614,15.02614,0,0,1-15.00927-15.00928v-94.5625a15.02614,15.02614,0,0,1,15.00927-15.00927H735.62866a15.02614,15.02614,0,0,1,15.00928,15.00927v94.5625a15.02614,15.02614,0,0,1-15.00928,15.00928h-9.63135a6.01156,6.01156,0,0,0-6.00463,6.00488v47.03321a4.474,4.474,0,0,1-2.87012,4.1958A4.5256,4.5256,0,0,1,715.478,505.85742Zm-319.57459-180.126a13.024,13.024,0,0,0-13.00927,13.00927v94.5625a13.024,13.024,0,0,0,13.00927,13.00928H658.12305a8.02441,8.02441,0,0,1,5.90039,2.5957l49.62207,54.1333a2.50253,2.50253,0,0,0,4.34717-1.69091V454.31738a8.01369,8.01369,0,0,1,8.00463-8.00488h9.63135a13.024,13.024,0,0,0,13.00928-13.00928v-94.5625a13.024,13.024,0,0,0-13.00928-13.00927Z" transform="translate(-178.63501 -163.5)" fill="#ccc"/><circle cx="36.81607" cy="363.05254" r="13.13371" fill="#ccc"/><path d="M518.04693,599.22573H208.967a7.00465,7.00465,0,1,1,0-14.00929H518.04693a7.00464,7.00464,0,1,1,0,14.00929Z" transform="translate(-178.63501 -163.5)" fill="#ccc"/><path d="M417.35517,569.456H208.967a7.00465,7.00465,0,1,1,0-14.00929H417.35517a7.00465,7.00465,0,1,1,0,14.00929Z" transform="translate(-178.63501 -163.5)" fill="#ccc"/><circle cx="239.07517" cy="188.81202" r="13.13371" fill="#ccc"/><path d="M720.306,424.9852H411.22611a7.00464,7.00464,0,1,1,0-14.00928H720.306a7.00464,7.00464,0,1,1,0,14.00928Z" transform="translate(-178.63501 -163.5)" fill="#ccc"/><path d="M619.61427,395.21547H411.22611a7.00465,7.00465,0,1,1,0-14.00929H619.61427a7.00465,7.00465,0,1,1,0,14.00929Z" transform="translate(-178.63501 -163.5)" fill="#ccc"/></svg>